#!OML:ASF H:\Terrain\Patient Classification 1\Terrain2\Thursday\justin.ASF
:FULLY-SPECIFIED
:DEGREES
1991
root 30.2034 17.7073 -0.195718 359.438 6.56543 -0.0620923
lowerback 7.35553 0.862901 -3.47777
upperback 3.15089 0.951219 2.14811
thorax -0.956327 0.441873 4.10148
lowerneck -11.8882 -3.82273 -10.9557
upperneck 37.9292 -4.6291 5.58473
head 15.8601 -2.73389 3.60919
rclavicle -2.11209e-014 -1.23246e-014
rhumerus -31.1036 -15.5681 -74.1554
rradius 28.6758
rwrist -10.9562
rhand -21.2105 11.8795
rfingers 7.12502
rthumb 5.17108 -18.0374
lclavicle -2.11209e-014 -1.23246e-014
lhumerus -39.0295 5.59885 74.9753
lradius 37.2779
lwrist 8.62029
lhand -22.7498 24.3357
lfingers 7.12502
lthumb 3.68468 -305.716
rfemur -21.3639 3.14762 17.6795
rtibia 47.0214
rfoot -16.0937 24.3874
rtoes 2.93879
lfemur -2.77239 -0.457319 -19.8071
ltibia 23.5085
lfoot -19.454 -10.4454
ltoes 3.23583
1992
root 30.2257 17.7039 -0.191757 359.485 5.92547 -0.00999841
lowerback 7.41313 0.915283 -3.49517
upperback 3.13584 1.0166 2.09703
thorax -1.00957 0.475865 4.05196
lowerneck -11.7514 -3.7028 -10.7727
upperneck 37.8319 -4.46799 5.44897
head 15.7451 -2.65941 3.54062
rclavicle 1.09829e-014 3.33958e-014
rhumerus -31.0908 -15.612 -74.2975
rradius 28.256
rwrist -10.2081
rhand -20.8592 11.919
rfingers 7.12502
rthumb 5.5103 -17.9894
lclavicle 1.09829e-014 3.33958e-014
lhumerus -38.9248 6.42851 74.3615
lradius 37.4163
lwrist 9.24127
lhand -23.0286 24.7909
lfingers 7.12502
lthumb 3.41549 -305.257
rfemur -22.1328 2.50583 17.83
rtibia 48.2306
rfoot -16.5758 22.2021
rtoes -2.54746
lfemur -2.62511 -0.359305 -20.0085
ltibia 23.287
lfoot -19.3981 -9.94611
ltoes 2.7388
1993
root 30.2458 17.6949 -0.179 359.446 5.25689 0.19217
lowerback 7.42393 1.00127 -3.70695
upperback 3.26909 1.1153 2.03682
thorax -0.889246 0.518787 4.10185
lowerneck -12.101 -3.66015 -10.6288
upperneck 37.9948 -4.34128 5.25876
head 15.8876 -2.612 3.4558
rclavicle 2.48481e-015 -3.29983e-014
rhumerus -30.9542 -15.9015 -74.3864
rradius 27.8561
rwrist -9.30799
rhand -20.6863 11.9479
rfingers 7.12502
rthumb 5.6772 -17.9561
lclavicle 2.48481e-015 -3.29983e-014
lhumerus -38.6392 7.3249 73.8102
lradius 37.5683
lwrist 9.93511
lhand -22.9174 23.7777
lfingers 7.12502
lthumb 3.52285 -306.272
rfemur -22.7805 1.95471 17.8172
rtibia 49.41
rfoot -16.9078 20.0549
rtoes -5.79195
lfemur -2.37721 -0.176672 -20.3822
ltibia 23.1158
lfoot -19.4183 -9.34671
ltoes 1.83932
1994
root 30.2734 17.6895 -0.162098 359.339 4.63027 0.575923
lowerback 7.44998 1.0715 -3.98631
upperback 3.40786 1.18763 1.92382
thorax -0.769341 0.547749 4.13725
lowerneck -12.272 -3.58573 -10.6794
upperneck 38.0689 -4.18219 5.21278
head 15.9496 -2.56033 3.47299
rclavicle 7.45443e-015 -1.27222e-014
rhumerus -30.9311 -16.0747 -74.454
rradius 27.5761
rwrist -8.7982
rhand -20.7286 12.2046
rfingers 7.12502
rthumb 5.63643 -17.7004
lclavicle 7.45443e-015 -1.27222e-014
lhumerus -38.4823 8.20848 73.2844
lradius 37.6895
lwrist 10.3563
lhand -22.5656 21.748
lfingers 7.12502
lthumb 3.86263 -308.307
rfemur -23.3129 1.13007 17.5914
rtibia 50.5543
rfoot -17.5287 17.9395
rtoes -8.8579
lfemur -2.00544 0.0223771 -20.9893
ltibia 22.9362
lfoot -19.4128 -8.77984
ltoes 1.61944
1995
root 30.3019 17.6967 -0.14495 359.282 4.10731 0.675451
lowerback 7.49308 1.05759 -3.95855
upperback 3.43718 1.16843 1.87288
thorax -0.759535 0.537695 4.06974
lowerneck -12.1593 -3.4444 -10.6497
upperneck 37.985 -3.95752 5.11828
head 15.8487 -2.47586 3.46116
rclavicle -1.98785e-015 1.31198e-014
rhumerus -31.0319 -16.0281 -74.5719
rradius 27.3479
rwrist -8.57669
rhand -20.7604 12.642
rfingers 7.12502
rthumb 5.60567 -17.2638
lclavicle -1.98785e-015 1.31198e-014
lhumerus -38.4813 9.22388 72.6489
lradius 37.5851
lwrist 10.502
lhand -22.8941 21.3616
lfingers 7.12502
lthumb 3.54537 -308.688
rfemur -23.9426 0.209222 17.7108
rtibia 51.6285
rfoot -18.466 15.6928
rtoes -9.80559
lfemur -1.69767 0.0441096 -21.3003
ltibia 22.6942
lfoot -19.378 -8.09131
ltoes 1.50565
1996
root 30.3225 17.7021 -0.127482 359.238 3.57227 0.494256
lowerback 7.56152 1.04984 -3.72895
upperback 3.43352 1.17099 1.88872
thorax -0.798257 0.541648 3.95499
lowerneck -12.0557 -3.3523 -10.5234
upperneck 37.9057 -3.82486 4.99301
head 15.7596 -2.42026 3.40282
rclavicle -2.48481e-015 -1.19271e-014
rhumerus -31.1607 -16.2249 -74.6343
rradius 27.0944
rwrist -8.03287
rhand -20.4686 12.7619
rfingers 7.12502
rthumb 5.8874 -17.1363
lclavicle -2.48481e-015 -1.19271e-014
lhumerus -38.4084 10.19 72.018
lradius 37.4336
lwrist 10.7345
lhand -22.9459 21.8345
lfingers 7.12502
lthumb 3.49533 -308.214
rfemur -24.597 -0.315901 18.1964
rtibia 52.6019
rfoot -19.3156 13.2605
rtoes -7.31355
lfemur -1.3556 -0.113927 -21.2877
ltibia 22.3573
lfoot -19.3078 -7.32998
ltoes 1.44987
1997
root 30.3405 17.7029 -0.105242 359.164 3.07793 0.331572
lowerback 7.61961 1.03635 -3.61036
upperback 3.43117 1.15999 1.96671
thorax -0.831378 0.537282 3.96922
lowerneck -11.9409 -3.25272 -10.4273
upperneck 37.8647 -3.67634 4.87283
head 15.6877 -2.36236 3.35628
rclavicle -1.68967e-015 -6.75868e-015
rhumerus -31.3409 -16.4859 -74.5807
rradius 26.8442
rwrist -7.38196
rhand -20.3844 13.0629
rfingers 7.12502
rthumb 5.96873 -16.833
lclavicle -1.68967e-015 -6.75868e-015
lhumerus -38.3989 10.8848 71.6996
lradius 37.5013
lwrist 11.411
lhand -23.1141 22.681
lfingers 7.12502
lthumb 3.33288 -307.365
rfemur -25.1289 -0.721346 18.6467
rtibia 53.4416
rfoot -19.7729 11.1882
rtoes -13.6232
lfemur -0.91802 -0.301811 -21.2693
ltibia 21.9714
lfoot -19.1856 -6.73133
ltoes 2.09053
1998
root 30.3591 17.7044 -0.0792163 359.145 2.64981 0.268261
lowerback 7.62317 1.00429 -3.60908
upperback 3.42186 1.11833 2.06056
thorax -0.840618 0.516099 4.06976
lowerneck -11.9563 -3.11249 -10.3098
upperneck 37.9524 -3.41428 4.63813
head 15.6985 -2.27007 3.27868
rclavicle -3.77691e-015 -1.35174e-014
rhumerus -31.5484 -16.6722 -74.5007
rradius 26.6771
rwrist -7.05547
rhand -20.152 13.5502
rfingers 7.12502
rthumb 6.19305 -16.3393
lclavicle -3.77691e-015 -1.35174e-014
lhumerus -38.4014 11.6356 71.4564
lradius 37.4081
lwrist 11.8752
lhand -23.0934 22.6536
lfingers 7.12502
lthumb 3.35288 -307.393
rfemur -25.705 -1.35458 18.9629
rtibia 54.126
rfoot -20.2028 9.50878
rtoes -15.288
lfemur -0.540142 -0.398259 -21.3413
ltibia 21.5792
lfoot -19.0279 -6.25912
ltoes 3.71213
1999
root 30.3763 17.7136 -0.054715 359.183 2.1728 0.202651
lowerback 7.56326 1.00203 -3.54408
upperback 3.48173 1.12178 2.09234
thorax -0.745473 0.514873 4.06686
lowerneck -12.2764 -3.03978 -10.2161
upperneck 38.2061 -3.24227 4.47779
head 15.8815 -2.21128 3.22733
rclavicle 5.66536e-015 2.90226e-014
rhumerus -31.5581 -16.9738 -74.5139
rradius 26.4222
rwrist -6.81753
rhand -19.98 13.7827
rfingers 7.12502
rthumb 6.35915 -16.1018
lclavicle 5.66536e-015 2.90226e-014
lhumerus -38.1756 12.6716 70.9412
lradius 36.9395
lwrist 11.3097
lhand -21.9115 21.9991
lfingers 7.12502
lthumb 4.49418 -308.069
rfemur -26.4454 -1.91442 19.3123
rtibia 54.6286
rfoot -20.6338 7.71341
rtoes -14.5991
lfemur -0.226876 -0.519713 -21.4241
ltibia 21.1632
lfoot -18.8313 -5.66208
ltoes 5.47709
2000
root 30.3934 17.7267 -0.0319336 359.264 1.70759 0.16019
lowerback 7.52417 1.00507 -3.5117
upperback 3.49096 1.129 2.11181
thorax -0.714878 0.517647 4.06871
lowerneck -12.4376 -3.00235 -10.1205
upperneck 38.4103 -3.14489 4.32369
head 16.0105 -2.18329 3.16437
rclavicle -2.88238e-015 6.75868e-015
rhumerus -31.5392 -17.2043 -74.5305
rradius 26.0292
rwrist -6.58641
rhand -20.514 14.0113
rfingers 7.12502
rthumb 5.84353 -15.8881
lclavicle -2.88238e-015 6.75868e-015
lhumerus -38.1658 13.198 70.6833
lradius 36.8911
lwrist 11.2439
lhand -21.3938 22.6795
lfingers 7.12502
lthumb 4.99413 -307.399
rfemur -27.2572 -2.35554 19.6439
rtibia 54.9351
rfoot -20.7687 5.97723
rtoes -13.6474
lfemur 0.032945 -0.747473 -21.5607
ltibia 20.7345
lfoot -18.635 -4.90722
ltoes 5.93596
2001
root 30.4118 17.7302 -0.00576201 359.338 1.36192 0.312395
lowerback 7.58474 1.00646 -3.65865
upperback 3.41436 1.11828 2.09827
thorax -0.828538 0.51476 4.13758
lowerneck -12.3506 -2.97387 -10.0992
upperneck 38.4852 -3.0706 4.1846
head 16.018 -2.17202 3.11374
rclavicle -1.18277e-014 -2.46493e-014
rhumerus -31.7884 -17.5216 -74.4137
rradius 25.8544
rwrist -6.32291
rhand -21.0285 13.7002
rfingers 7.12502
rthumb 5.34683 -16.2124
lclavicle -1.18277e-014 -2.46493e-014
lhumerus -38.3047 12.9621 70.9562
lradius 37.3185
lwrist 12.9486
lhand -22.5742 23.56
lfingers 7.12502
lthumb 3.85425 -306.495
rfemur -27.9512 -2.9925 19.7528
rtibia 55.0625
rfoot -20.7632 4.56652
rtoes -13.5786
lfemur 0.293908 -0.87913 -21.8895
ltibia 20.3433
lfoot -18.4842 -4.38125
ltoes 6.05217
2002
root 30.4323 17.729 0.0281371 359.273 1.07108 0.459945
lowerback 7.70685 0.966388 -3.81214
upperback 3.41065 1.05049 2.1199
thorax -0.895555 0.480863 4.25183
lowerneck -12.3358 -2.91773 -10.1782
upperneck 38.5233 -2.94119 4.11039
head 16.0226 -2.14242 3.11763
rclavicle 3.08116e-015 9.14409e-015
rhumerus -32.1194 -17.8166 -74.2644
rradius 25.9344
rwrist -6.15139
rhand -20.9288 13.0027
rfingers 7.12502
rthumb 5.44311 -16.9074
lclavicle 3.08116e-015 9.14409e-015
lhumerus -38.2849 13.3575 70.9593
lradius 37.1813
lwrist 13.3713
lhand -23.1433 23.6851
lfingers 7.12502
lthumb 3.30475 -306.361
rfemur -28.4188 -3.89739 19.8792
rtibia 55.0101
rfoot -20.8072 3.25691
rtoes -14.7567
lfemur 0.690294 -1.00123 -22.2274
ltibia 20.0546
lfoot -18.4636 -3.8762
ltoes 5.91665
2003
root 30.453 17.7277 0.0626903 359.259 0.698746 0.586649
lowerback 7.67847 0.88766 -4.02618
upperback 3.47463 0.93315 2.21136
thorax -0.805164 0.41619 4.47987
lowerneck -12.4664 -2.78722 -10.253
upperneck 38.5369 -2.67575 4.01459
head 16.0351 -2.05711 3.1332
rclavicle 1.31198e-014 -1.39149e-014
rhumerus -32.2109 -17.5773 -74.2772
rradius 26.0043
rwrist -6.61595
rhand -20.7224 12.8181
rfingers 7.12502
rthumb 5.64237 -17.0868
lclavicle 1.31198e-014 -1.39149e-014
lhumerus -38.3633 14.483 70.6478
lradius 36.7651
lwrist 11.9075
lhand -21.9629 23.0505
lfingers 7.12502
lthumb 4.44464 -307.016
rfemur -28.9322 -4.74919 20.0183
rtibia 54.7904
rfoot -20.6036 2.30511
rtoes -15.9491
lfemur 0.977386 -1.17038 -22.5668
ltibia 19.8772
lfoot -18.5987 -3.13912
ltoes 4.92806
2004
root 30.4697 17.7276 0.0921719 359.418 0.320486 0.830391
lowerback 7.48465 0.827267 -4.28533
upperback 3.54226 0.841894 2.18849
thorax -0.620062 0.361979 4.61293
lowerneck -12.7474 -2.68321 -10.3378
upperneck 38.5597 -2.50672 4.11909
head 16.1007 -1.98637 3.22343
rclavicle 9.83984e-015 3.65764e-014
rhumerus -32.0772 -17.3543 -74.4365
rradius 25.9222
rwrist -7.21581
rhand -20.8518 12.8642
rfingers 7.12502
rthumb 5.51742 -17.044
lclavicle 9.83984e-015 3.65764e-014
lhumerus -38.3063 15.0398 70.638
lradius 36.7272
lwrist 11.7029
lhand -21.5657 22.4049
lfingers 7.12502
lthumb 4.82816 -307.67
rfemur -29.5993 -5.38399 20.0077
rtibia 54.3934
rfoot -20.3162 1.85958
rtoes -16.6514
lfemur 0.986824 -1.26067 -22.9865
ltibia 19.7804
lfoot -18.6687 -2.61185
ltoes 4.9428
2005
root 30.4839 17.7319 0.124317 359.512 0.0667308 0.617548
lowerback 7.40496 0.770903 -3.98872
upperback 3.57197 0.789186 2.18469
thorax -0.536906 0.335876 4.44526
lowerneck -12.827 -2.63901 -10.2801
upperneck 38.4885 -2.50168 4.24251
head 16.0805 -1.95882 3.26593
rclavicle -8.44835e-015 1.63003e-014
rhumerus -32.0838 -17.691 -74.4895
rradius 25.7148
rwrist -7.07686
rhand -20.6844 12.8046
rfingers 7.12502
rthumb 5.67904 -17.0993
lclavicle -8.44835e-015 1.63003e-014
lhumerus -37.9902 15.2989 70.5552
lradius 36.3577
lwrist 11.7818
lhand -21.9666 22.2645
lfingers 7.12502
lthumb 4.441 -307.802
rfemur -30.0991 -5.9188 20.5033
rtibia 53.8389
rfoot -20.1825 1.2194
rtoes -16.4123
lfemur 1.04105 -1.24179 -22.8451
ltibia 19.7155
lfoot -18.5969 -2.42233
ltoes 5.27216
